<?xml version="1.0" encoding="UTF-8"?>
<!DOCTYPE svg PUBLIC "-//W3C//DTD SVG 1.1//EN" "http://www.w3.org/Graphics/SVG/1.1/DTD/svg11.dtd">
<!-- Creator: CorelDRAW 2020 (64-Bit Evaluation Version) -->
<svg xmlns="http://www.w3.org/2000/svg" xml:space="preserve" width="95.8253mm" height="71.0462mm" version="1.1" style="shape-rendering:geometricPrecision; text-rendering:geometricPrecision; image-rendering:optimizeQuality; fill-rule:evenodd; clip-rule:evenodd"
viewBox="0 0 19930.65 14776.86"
 xmlns:xlink="http://www.w3.org/1999/xlink"
 xmlns:xodm="http://www.corel.com/coreldraw/odm/2003">
 <defs>
  <style type="text/css">
   <![CDATA[
    .fil1 {fill:#FEFEFE}
    .fil0 {fill:#EF7F1A}
    .fil4 {fill:#238F9F}
    .fil2 {fill:#EF7F1A;fill-rule:nonzero}
    .fil3 {fill:#238F9F;fill-rule:nonzero}
   ]]>
  </style>
 </defs>
 <g id="Layer_x0020_1">
  <metadata id="CorelCorpID_0Corel-Layer"/>
  <g id="_1280136956832">
   <path class="fil0" d="M2756.77 417.39c0,214.96 10.55,116.18 33.69,211.15 14.95,61.36 12.17,48.38 44.97,100.08 58.15,91.7 139.37,137.88 229.97,187.09 64.41,35.03 333.51,18.49 416.73,18.49l843.42 -0.21c57.43,-0.25 85.9,13.27 135.11,8.99l182.01 0.29c1.89,84.51 39.33,124.73 44.95,181.72 9.63,97.63 38.29,121.34 44.49,182.18 9.73,95.7 29.62,96.22 41.45,185.24 9.38,70.45 24.15,80.18 43.78,191.93 2.04,11.48 5.84,26.48 12.15,42.26 21.01,52.66 20.09,85.53 31.64,140.62 8.24,39.25 23.38,46.19 31.78,86.09 8.51,40.27 4.12,67.85 14.83,103.06 14.02,46.11 18.12,16.35 27,81.78 13.12,96.57 36.83,116.02 44.18,191.56 5.89,60.61 27.23,79.45 37.31,134.94 24.92,136.86 2.56,40.54 34.76,137.54 9.36,28.2 10.3,72.34 16.58,101.29 9.86,45.61 19.68,42.43 29.76,88.08 6.14,27.68 4.31,68.8 11.77,97.07 8.96,33.99 24.38,41.66 31.09,86.75 13.21,88.56 34.76,110.34 44.9,190.85 9.86,78.5 25.33,76.66 41.47,185.17 7.36,49.38 12.33,52.6 27.83,90.06 15.99,38.54 8.92,56.49 16.06,101.81 5.39,34.3 21.57,48.52 29.91,78.89 8.57,31.2 7.55,69.24 15.64,102.21 7.32,29.78 26.27,51.58 31.72,86.15 6.72,42.53 1.27,67.72 15.29,102.58 40.56,101.12 20.13,114.79 48.71,177.98 18.45,40.79 15.47,44.28 21.24,96.61l26.87 91c9.32,21.82 6.2,14.1 10.94,43.47l34.51 137.75c10.03,28.29 7.9,69.03 16.35,101.56 11.46,44.26 20.82,40.58 29.47,88.37 4.7,26.02 7.34,70.24 14.85,93.95 14.04,44.3 24.5,31.88 28.81,89.06 4.49,59.82 19.76,84.49 36.46,135.8 14.56,44.8 11.19,101 30.26,142.02 18.49,39.81 13.52,92.04 48.9,186.82 12.31,32.99 8.24,63.46 16.2,101.69 8.69,41.76 21.21,48.88 28.91,79.89 8.15,32.95 7.07,70.95 15.66,102.21 9.55,34.71 25.92,43.57 30.93,86.94 14.54,125.85 30.16,89.6 42.83,183.84 14.21,105.8 29.89,93.28 42.31,193.43 6.93,55.89 23.73,50.71 44.01,182.68 7.65,49.79 22.42,44.76 31.72,86.13 8.3,36.81 3.7,69.93 12.79,105.06 12.19,47.13 21.26,28.93 31.41,86.5 7.34,41.64 -1.02,62.46 13.87,94.88 47.28,102.77 13.75,103.33 52.21,183.55l20.15 97.71c2.7,38.83 14.73,54.99 26.98,81.84 11.31,24.75 11.77,72.53 16.58,101.27 9.65,57.68 17.47,39.64 27.95,80.85 9.17,35.98 5.1,63.6 13.66,104.22 9.19,43.66 24.58,41.91 31.39,77.41 7.18,37.4 3.37,68.12 14.68,103.18 10.71,33.24 27.23,52.08 30.74,87.13 10.17,102.23 14.37,66.27 46.11,180.53l58.32 113.98c1.12,1.5 2.97,3.45 4.08,4.95l32.3 49.34c26.44,33.32 65.35,57.55 98.48,82.84l44.14 28.41c122.96,50.06 102.48,46.55 252.73,46.46 616.61,-0.37 1233.36,-1.16 1849.94,-0.31l1377.83 9.36c140.37,0 327.27,-10.65 461.92,0.5 286.13,23.67 614.69,8.59 916.23,8.59 580.27,0 1160.54,0 1740.83,0 44.36,0 10.38,-1.96 43.01,-11.4 19.16,-5.55 21.11,-5.49 45.03,-9.34 49.46,-7.97 73.57,-22.09 116.54,-46.69 36.54,-20.92 6.2,-3.58 30.84,-23.54 38.27,-31.01 85.03,-58.69 111.59,-106.03l41.85 -66.95c43.64,-108.82 46.34,-124.77 46.34,-252.85 0,-59.63 -23.05,-112.92 -46.92,-161.63 -31.8,-64.89 -92.28,-134.05 -151.08,-175.31 -16.97,-11.92 -18.95,-9.42 -35.98,-18.43 -67.78,-35.92 -29.22,-24.9 -117.12,-46.05 -37.81,-9.11 -31.68,-22.55 -83.69,-25.13 -271.86,-13.54 -585.2,0.42 -861.76,0.42l-1505.09 0.02c-80.93,0.31 -125.92,-9.3 -208.49,-9.11 -1151.37,2.62 -2303.07,0 -3454.48,0 -3.22,-38.98 -10.34,-104.76 -30.05,-142.2 -13.25,-25.17 -17.01,-73.69 -23.09,-103.85 -12.21,-60.59 -71.01,-193.7 -38.71,-244.28 18.2,-28.49 39.27,-15.39 82.01,-18.18 78.31,-5.1 203.08,-13.33 273.57,-34.69 44.57,-13.5 141.06,-11.63 191.27,-17.28 66.47,-7.49 104.89,-23.42 170.66,-28.79 51.44,-4.2 144.14,-4.12 195.99,-12.56 60.21,-9.8 105.7,-31.97 166.35,-33.11 94.14,-1.79 186.96,-9.26 276.75,-31.51 96.53,-23.92 192.45,-6.01 281.91,-26.39 39.39,-8.94 35.48,-19.72 76.37,-23.34 32.4,-2.85 63.15,2.08 97.19,-2.54 61.96,-8.4 124.61,-7.07 183.65,-24.9 92.01,-27.75 219.05,-6.8 317.77,-35.84 99.11,-29.12 217.58,-20.69 316.89,-36.69 41.22,-6.63 34.65,-11.44 80.1,-19.65 52.77,-9.55 133.78,-5.89 185.88,-13.58 77,-11.38 100.13,-27.97 178.43,-30.12l185.67 -13.77c68.01,-10.86 99.79,-31.39 176.73,-31.84 62.5,-0.33 136.48,-5.22 184.45,-15.02 43.62,-8.88 40.83,-17.37 79.02,-20.72 39.5,-3.45 70.09,-4.6 100.85,-7.95 74.07,-8.09 117.83,-1.5 181.14,-18.3 92.04,-24.46 177.25,-19.22 278.85,-29.43 74.73,-7.53 7.32,-22.21 273.13,-35.15 21.92,-1.08 64.1,-6.66 87.9,-11.86 22.55,-4.91 42.18,-15.29 78.6,-21.11 91.16,-14.56 190.91,2.81 279.95,-28.35 80.89,-28.29 190.56,-16.24 279.56,-28.68 73.15,-10.19 81.45,-27.16 171.7,-27.77 144.78,-1.02 229.6,-42.6 353.19,-45.76 78.43,-2.02 123.32,-2.56 189,-19.53 108.4,-28.04 249.03,-15.99 361.3,-46.74 51.69,-14.12 139.66,-10.34 174.13,-25.33 61.67,-26.85 126.27,-59.82 173.48,-107.59l117.43 -163.6c12.83,-49.31 33.63,-99.52 42.76,-156.72l11.27 -43.14c29.08,-60.42 26.08,-106.14 49.27,-159.26 22.57,-51.66 20.32,-113.02 43.53,-155.93 20.53,-37.96 12.15,-33.82 18.03,-81.7 3.95,-31.97 29.51,-77.41 44.14,-164.42 7.8,-46.3 14.7,-28.39 28.68,-71.05 6.99,-21.3 9.65,-60.82 15.35,-84.36 11.21,-46.4 18.84,-28.16 29.8,-79.04 5.24,-24.42 5.78,-61.32 15.37,-84.34 38.96,-93.37 26.12,-113.71 45.53,-153.95 15.08,-31.32 20.2,-34.44 26.02,-73.71 9.44,-63.85 30.22,-95.65 39.98,-159.49 12.92,-84.57 32.03,-69.24 44.16,-164.37 6.45,-50.6 12.27,-41.64 26.69,-73.07 10.61,-23.19 12.69,-56.76 16.89,-82.84 7.97,-49.25 9.44,-35.79 25.31,-74.42 15.7,-38.19 7.8,-51.75 18.03,-90.77 8.76,-33.47 21.42,-42.64 28.39,-71.34 6.61,-27.16 6.63,-59.82 14.31,-85.42 7.59,-25.27 21.51,-31.49 29.76,-69.97 8.13,-37.87 3.35,-59.09 17.64,-91.16 28.58,-64.21 23.73,-115.91 44.03,-155.45 14.21,-27.72 4.06,3.14 15.93,-29.41 4.99,-13.69 5.47,-23.57 8.22,-46.17 7.57,-61.84 35.5,-104.66 43.14,-165.39 7.61,-60.5 2.5,-31.28 24.46,-75.27 16.16,-32.43 9.86,-43.43 16.95,-82.78 9.03,-49.83 19.68,-41.08 30.68,-78.14 8.92,-30.08 6.93,-55.18 13.6,-86.13 6.2,-28.62 21.73,-40.89 29.68,-70.03 9.01,-32.99 5.55,-57.57 13.75,-86.02 10.65,-37.15 20.69,-29.35 30.74,-78.04 7.8,-37.79 1.96,-51.73 15.43,-84.3 22.73,-54.93 27.45,-95.65 37.23,-162.25 4.7,-32.16 15.81,-47.71 15.81,-92.99 0,-32.74 -10.07,-30.32 -15.41,-57.11 -7.49,-37.56 -7.78,-83.05 -29.76,-115.33l-14.18 -22.07c-28.33,-56.16 -60.38,-105.95 -109.76,-144.14 -2.1,-1.62 -8.4,-5.99 -10.48,-7.65 -1.48,-1.16 -3.49,-2.89 -4.95,-4.08 -109.07,-90.1 -107.32,-49.81 -185.15,-86.86 -37.73,-17.99 -10.44,-14.52 -65.31,-16.31 -484.05,-15.95 -991.24,-8.88 -1478.08,-8.88l-7126.49 0c-57.86,-120.57 -48.88,-201.06 -63.94,-235.26 -31.36,-71.11 -16.2,-114.35 -49.04,-177.62 -19.76,-38.17 -13.73,-95.78 -48.05,-187.69 -15.74,-42.16 -8.07,-85.69 -24.31,-129.83 -30.91,-84.07 -30.14,-147.55 -45.67,-180.99 -22.57,-48.57 -16.16,-76.33 -27.56,-126.58 -10.96,-48.4 -10.73,-22.13 -23.36,-49.17 -20.94,-44.7 8.3,-48.9 -60.55,-166.12 -15.02,-25.58 -0.62,-1.75 -15.99,-20.28l-88.08 -93.26c-1.41,-1.21 -3.52,-2.89 -4.93,-4.12 -1.41,-1.23 -3.37,-3.08 -4.78,-4.28 -24.09,-21.24 -15.66,-13.91 -41.7,-30.82 -21.71,-14.12 -22.03,-22.09 -50.13,-31.49 -24.56,-8.24 -32.26,-4.26 -57.82,-14.7 -20.88,-8.55 -28.2,-18.7 -57.8,-23.79 -71.94,-12.42 -1153.32,-3 -1376.43,-1.73 -63.54,0.35 -86.32,-9.42 -144.64,-9.51 -99.9,-0.15 -199.82,0.52 -299.73,0.08 -34.94,-0.12 -110.78,4.78 -142.64,11.52l-177.17 85.75c-81.05,53.12 -187.73,223.69 -187.73,320.01z"/>
   <path class="fil1" d="M6392.45 2812.31c0.6,60.65 -161.15,416.39 -192.12,504.1 -29.24,82.8 -67.16,159.53 -98.55,243.83 -21.76,58.47 -78.5,212.88 -86.07,265.6 -12.29,85.71 72.9,169.47 127.02,59.73 34.46,-69.86 105.95,-166.99 144.26,-239.42 75.04,-141.81 160.38,-278.12 271.55,-393.39 35.48,-36.81 61.94,-57.93 104.85,-87.77 41.22,-28.68 63.27,-72.53 119.39,-14.33 16.78,17.39 31.91,31.64 48.44,47.69 9.3,9.01 15.85,14.23 24.38,23.73 12.67,14.1 10.65,16.02 20.42,27.52l48.46 47.84c38.94,47.75 105.31,96.63 140.81,147.67 19.95,28.66 165.35,176.15 169.93,215.93 3.95,34.07 -66.49,242.99 -65.93,297.26 1,97.57 65.81,166.29 111.65,111.02l119.95 -150.06 225.04 -201.15c49.96,-42.85 133.18,-55.51 187.02,-93.28l-100.38 -127.31c-136.5,-7.15 -261.9,87.42 -340.06,-25.62 -20.63,-29.87 -43.07,-62.11 -66.95,-91.54 -33.92,-41.89 -74.31,-110.94 -93.51,-133.34 -16.35,-19.11 -20.55,-22.11 -37.04,-45.51 -11.63,-16.49 -22.38,-29.24 -32.76,-43.14 -13.83,-18.53 -18.39,-31.61 -29.18,-46.22 -31.97,-43.16 -126.5,-134.74 -124.54,-188.27 1.29,-36.04 46.09,-68.35 66.83,-88.71 115.89,-113.71 361.94,-207.64 512.76,-259.07l348.17 -128.16c17.58,-113.25 -147.3,-114.83 -221.84,-101.98 -101.81,17.55 -190.56,39.71 -294.87,57.34 -170.59,28.81 -504.27,112.4 -645,113.83 -64.87,0.67 -185.8,-193.1 -229.12,-241.89 -15.29,-17.22 -23.94,-23.96 -39.6,-43.07 -48.38,-59.05 -101.12,-106.05 -162.25,-153.62l-103.2 -54.39c-50.15,-24.09 -131.03,-40.83 -185.86,-57.78 -16.76,29.14 -50.62,67.33 -50.27,101.42 2.37,231.31 143.53,420.49 291.79,573.05 27.95,28.76 115.91,125.92 116.39,171.45z"/>
   <path class="fil1" d="M11828.48 2256.58c4.99,-18.68 11.69,-22.77 22.3,-35.82l5.1 -6.55c0.77,-0.96 1.73,-2.39 2.48,-3.35l21.86 -24.85c40.83,-43.12 9.4,-47.05 -29.7,-23.75 -38.56,23 -72.46,51.5 -104.79,81.39 -81.43,75.27 -196.45,250.63 -196.45,367.37 -36.54,-24.42 -44.72,-91.08 -106.16,-155.43 -16.83,-17.6 -22.23,-29.85 -40.6,-46.61 -48.27,-44.09 -105.95,-90.31 -168.51,-110.59l-16.93 -6.32c-62.4,-28.93 -85.28,0.94 -40.12,28.35 18.2,11.07 33.84,21.78 46.57,40.77 -37.38,-0.85 -14.73,-5.62 -40.18,-17.99 -68.45,-33.28 -161.71,-61.5 -239.15,-63.25 -49.34,-1.12 -57.82,-16.72 -104.6,5.7 6.91,25.77 29.1,37.04 50.6,48.21l7.57 4.08c-65.89,0 -47.69,-11.63 -133.8,-11.63l-80.39 18.49c-20.92,6.45 -48.07,23.21 -68.47,36.19l-20.01 14.89c-0.94,0.73 -2.31,1.81 -3.24,2.54l-86.67 81.95c-11.69,12.67 -15.45,12.38 -25.33,26.98 -8.38,12.42 -10.79,19.28 -20.03,32.3l-30.08 45.49c-0.67,1.1 -1.46,2.6 -2.12,3.68l-27.37 48.21c-17.8,35.84 -42.49,68.78 -43.47,113.46 39.6,9.21 52.5,-25.46 128.39,-69.3 23,-13.29 43.53,-27.64 70.72,-33.94 34.69,-8.05 48.57,-18.76 85.92,-18.76l-61.29 60.77c-16.22,17.85 -41.1,50.85 -43.41,78.68 41.33,19.8 55.33,-11.9 142.51,-37.77 49.65,-14.75 113.98,-37.79 165.79,-37.79 -12.02,17.95 -8.67,16.6 -16.87,35.44 -11.13,25.65 -18.03,19.82 -18.03,51.73 0,37.06 43.82,4.6 57.51,-0.67 9.09,-3.47 11.5,-2.93 22.59,-6.49 11.04,-3.54 14.81,-6.43 24.63,-10.25 23.4,-9.11 81.16,-15.37 113.85,-20.3 43.78,-6.61 150.77,9.67 192.54,33.78 17.7,10.23 10.96,-1.98 13.52,21.36 -22.07,10.59 -45.72,4.33 -75.65,5.78 -19.22,0.94 -60.13,6.99 -76.33,10.92 -24.11,5.87 -12.44,4.51 -30.01,10.69 -12.73,4.49 -18.97,5.1 -32.11,8.59 -59.76,15.89 -121.53,47.03 -173.11,82.76 -49.81,34.51 -136.79,114.5 -14.25,67.1l8.34 -3.27c20.22,-9.03 21.55,-14.06 49.92,-14.06l0 11.63c-46.46,3.85 -173.4,120.34 -212.21,165.71 -33.03,38.64 -96.09,93.03 -96.09,142.24 0,48.94 117.24,-61.79 68.05,-2.6 -0.71,0.85 -2.04,2.1 -2.81,3 -0.77,0.94 -2.04,2.23 -2.83,3.18 -98.46,120.01 -114.77,155.22 -114.77,327.62 0,47.44 14.64,81.57 23.65,121.65 2.89,12.9 2.6,13.19 8.3,26.56l56.14 124.07c7.36,17.1 16.72,31.97 27.54,48.02 9.34,13.89 4.93,5.39 13,21.88 16.91,34.55 57.53,68.43 57.53,35.5 0,-65.1 -11.71,-120.47 3.62,-182.32l12.79 -56.95c3.37,-18.82 0.27,-9.05 6.07,-22.98l13.39 -33.11c7.84,-21.4 1.41,-17.99 28.1,-24.21 1.08,47.75 9.78,103.33 30.55,143.8 10.77,21.01 15.79,19.24 39.27,24.71 14.25,-61.17 16.02,-110.73 37.52,-171.72l29.2 -75.42c12.98,-27.43 25.25,-48.73 32.16,-78.27 26.75,2.23 10.25,-6.26 23.32,11.56 12.71,17.35 60.25,135.48 78.97,9.26 1.85,-12.52 1.96,-24.11 5.12,-35.55 20.84,-75.33 56.45,-130.99 100.15,-196.32l40.72 -46.46c18.37,-16.7 25.44,-25.48 45.8,-41.41 17.76,-13.89 34.96,-21.82 49.13,-38.1 0,30.64 -26.37,54.81 -40.04,82.05 -13.87,27.7 -29.56,51.62 -39.06,82.99 -19.28,63.62 -40.1,140.21 -36.56,206.12 1.41,26.06 12.75,118.66 34.24,134.38 20.13,-13.48 18.89,-17.22 23.4,-46.34l17.3 -58.26c0,80.82 3.93,145.76 32.24,217.66l18.59 45.32c13.56,29.22 23.4,57.86 42.45,85.42l34.69 29.28c8.55,-17.78 11.65,-37.17 11.65,-63.92l27.89 53.47c6.26,13.29 5.7,15.47 13.5,27.18l4.99 6.63c0.71,1 1.81,2.31 2.54,3.29 40.04,55.26 95.22,107.11 162.92,127.77l66.52 20.72c68.01,11.09 85.71,22.4 163.73,22.4 42.47,0 71.36,-4.22 104.74,-5.76 46.78,-2.14 71.76,6.45 81.39,-34.9l-122.88 -57.36c-40.06,-19.84 -117.29,-67.22 -121.42,-116.95 24.4,16.33 151.21,71.19 168.7,5.8 -6.51,-8.86 -93.1,-66.56 -117.78,-91.54l-52.43 -52.21c-18.43,-19.43 -38.44,-31.03 -39.21,-65.43 32.3,0 63.31,-1.41 87.25,-17.43 -8.86,-38.04 -27.97,-35.5 -54.14,-56.3 -2.81,-2.2 -8.71,-7.76 -12.21,-11.04 -8.8,-8.22 -6.57,-6.61 -15.25,-13.85 -72.67,-60.44 -126.77,-164.02 -137.92,-257.35 -4.64,-38.69 -4.24,-63.06 -9.21,-101.6 -6.97,-54.2 13.5,-139.62 13.5,-204.83 38.04,0.85 29.97,13.87 49.98,43.03 24.42,35.57 56.89,71.42 77.79,108.26 6.3,11.13 9.53,18.57 16.87,29.62l163.73 301.29c5.82,12.5 11.04,19.22 16.31,30.2l147.8 363.71c3.16,12.1 5.22,23.36 10.48,36 6.45,15.47 7.2,12.9 12.73,33.78l55.3 182.99c9.28,24.73 11.4,49.81 19.09,73.9 7.67,24.04 9.67,54.64 16.64,76.33 5.76,17.85 7.82,15.43 11.81,34.69 13.21,63.83 20.47,132.82 37.48,194.99 16.39,59.84 34.03,245.16 47.28,324.65 4.8,28.83 2.08,57.26 6.49,86.48 9.44,62.54 19.9,299.75 19.9,357.82 0,63.73 7.8,267.79 -2.79,316.79 -8.44,39.04 -32.47,36.02 -71.13,45.15 -20.47,4.85 -27.02,13.54 -56.43,19.18 -28.16,5.41 -39.83,6.86 -62.19,13.42 -39.81,11.65 -86.36,14.08 -132.68,18.55l-180.87 11.09c-168.16,0 -256.14,-26.25 -438.09,3.99 -62.04,10.3 -125.67,25.02 -184.47,53.95 -14.18,6.99 -22.88,12.02 -37.42,20.74 -6.63,3.97 -11.9,6.7 -17.85,11.23l-12.21 11.04c-35.3,32.9 -62.94,59.84 -79.06,106.97 -7.2,20.99 -20.22,35.92 -34.48,52.7 -1.1,1.27 -4.33,4.93 -5.49,6.14 -13.35,13.81 -34.4,23.92 -34.4,46.98 0,55.08 229.2,46.49 279.2,46.49l174.71 0.21c28.7,-0.87 29.08,-5.35 57.78,-6.2 39.79,-1.21 82.43,0.17 122.48,0.33l350.79 -16.33c53.31,-4.97 18.41,51.04 190.06,51.04 104.02,0 214.85,6.63 317.48,-8.26 47.73,-6.93 92.35,-4.47 140.5,-10.73 43.68,-5.72 83.74,-11.69 132.86,-18.37 90.97,-12.38 164.62,-30.8 255.18,-47.23 31.34,-5.68 30.01,-10 60.38,-15.22 178.91,-30.82 386.94,-43.8 571.95,-23.05l278.37 12.46c49.44,0 149.65,-36.52 134.07,-99.17 -0.08,-0.33 -8.84,-27.83 -10.03,-30.45 -27.16,-59.48 -155.45,-85.36 -211.3,-85.36 -46.78,0 -97.71,-4.41 -142.97,2.43 -70.57,10.67 -161.27,11.54 -221.72,-27.45l-72.32 -43.99c-42.87,-30.12 -112.21,-46.67 -163.65,-57.34 -27.5,-5.72 -35.19,-10.82 -59.19,-16.41 -62.42,-14.52 -123.84,-21.96 -187.38,-39.41 -55.26,-15.2 -73.38,-2.72 -118.41,-32.82 0,-80.26 7.13,-255.37 22.82,-331.68l22.15 -123.15c14.68,-53.41 15.45,-94.93 32.43,-147.71 4.87,-15.14 4.39,-6.88 10.55,-24.33 7.11,-20.2 3.74,-32.84 13.79,-55.95 8.15,-18.72 2.91,1.58 10.07,-24.79l38.29 -107.03c25.44,-59.46 48.77,-117.99 81.62,-174.15 7.28,-12.46 6.32,-12.13 11.38,-23.48l51.98 -87.54c43.34,-65.75 88.37,-131.72 142.7,-188.67l47.4 -57.24c0.81,-0.87 2,-2.12 2.83,-3l18.26 -16.6c13.77,-11.23 22.53,-22.46 34.57,-35.21l59.4 -51.04c38.6,-34.24 110.57,-111.48 161.82,-111.48 0,51.85 -6.86,99.9 -21.05,147.49 -18.74,62.83 -60.8,120.28 -116.85,156.39 -4.08,2.62 -4.85,3.31 -10.77,6.66 -24.48,13.91 -31.66,15.18 -31.66,49.73 17.85,1.5 27.97,5.51 40.72,11.63 -12.67,18.93 -32.49,28.58 -49.71,43.3 -0.92,0.79 -2.18,1.96 -3.08,2.75l-12.6 10.65c-15.97,11.77 -21.36,10.55 -38.15,20.01 -13.08,7.34 -28.2,17.14 -36.07,27.89 19.9,29.68 34.82,23.23 81.45,23.23l-31.57 26.58c-1.14,0.64 -2.72,1.31 -3.89,1.93l-34.21 18.12c-33.26,11 -66.31,2.6 -69.95,46.34l78.35 20.53c49.21,12.02 119.05,12.81 167.64,-1.41l111.13 -57.53c15.1,-15.16 32.92,-28.12 38.44,-48.75l23.27 23.25c26.27,-39.19 27.83,-27.02 64.41,-92.56 9.34,-16.76 13.91,-42.66 26,-55.35 3.27,-3.43 12.71,-8.9 17.72,-11.36 21.59,-10.65 19.55,0.08 29.31,-28.83 48.65,-144.16 -10.88,-200.73 -15.29,-253.52 9.53,6.97 -0.79,-0.83 9.17,8.28 27.64,25.33 53.47,56.22 65.18,91.79 22.8,69.34 15.85,81.82 30.35,143.99 22.86,0.5 13.64,-1.6 29.08,5.8 8.47,-12.6 11,-20.07 23.27,-29.06 13.73,20.47 13.17,7.3 20.11,38 8.13,35.82 18.95,69.43 20.42,107.45 1.54,39.19 -5.37,26.48 11.81,52.1 31.41,-8.36 45.84,-50.04 46.55,-81.34 45.61,33.4 11.63,126.81 11.63,168.51 0,13.31 1.98,6.76 5.82,23.25 24.9,-2.08 36.67,-15.33 49.23,-32.18 12.75,-17.1 23.09,-29.43 34.13,-47.26l43.86 -78.2c29.97,-70.3 38.39,-163.94 6.3,-232.01 -22.28,-47.21 6.07,-25.29 6.07,-57.76 0,-28.83 -18.39,-40.64 -28.58,-58.61 -1.73,-3.04 -5.55,-11.52 -5.68,-11.77l-16.29 -24.42c-0.71,-1 -1.66,-2.41 -2.37,-3.41l-48.86 -61.69c-3.04,-9.01 29.41,-74.02 -111.75,-138.15 -33.82,-15.35 -86.27,-43.82 -129.68,-44.78 14.21,-20.42 37.63,-11.65 75.62,-11.65 24.71,0 38.79,1.39 58.42,5.55l51 18.8c37.79,17.18 65.08,53.2 65.08,-30.16l77.35 27.33c16.68,7.15 131.93,83.13 77.04,-13.62 -18.3,-32.26 -12.31,-43.14 23.23,-17.2 25.44,18.53 131.97,122.92 101.73,26.62 -2.29,-7.26 -4.78,-15.43 -8.34,-26.54 -24.13,-75.85 -71.67,-161.86 -139.66,-203.33 -33.82,-20.61 -66.16,-31.49 -108.07,-31.49 -25.37,-52.81 -1.93,-40.68 -127.98,-40.68 -22.61,0 -44.68,7.05 -56.57,4.28 -39.48,-9.17 -19.14,-50.9 -143.2,16.95 -85.38,46.69 -101.79,104.12 -131.78,106.62 -15.77,-67.6 -25.83,-118.41 -61.61,-176.71 -20.42,-33.32 -58.9,-93.22 -101.54,-103.25 -21.09,-4.95 -9.78,-12.42 -17.18,6.84 -37.46,-0.81 -59.03,-37.5 -89.54,-55.8 -36.79,-22.07 -61.38,-42.97 -108.24,-42.97 -4.1,16.99 0.73,8.36 -11.65,17.43 -22.28,-5.18 -35.94,-12.6 -56.49,-19.09 -121.45,-38.44 -243.85,37.04 -329.02,110.48 -3.22,2.77 -15.77,12.83 -15.99,13.08 -8.4,8.36 -11.5,5.93 -11.5,23.36 0,33.47 45.63,10.13 59.76,7.4 52.77,-10.23 92.49,-1.58 126.4,-1.58 -23.67,32.24 -64.6,22.46 -75.62,69.72 38.73,20.47 53.7,8.13 104.49,11.83 40.99,3 62.13,19.97 99.09,23.05 -14.14,21.11 -37.46,28.52 -23.25,58.09 26.77,12.83 58.15,-0.06 89.1,9.78l88.48 33.63c30.05,15.1 62.56,34.8 84.09,61.27 12.71,15.62 4.01,-3.91 11.73,17.35 -62.98,-14.66 -90.91,-34.86 -168.7,-34.86 -36.88,0 -79.24,15.95 -110.53,23.23 3.58,15.29 5.3,17.08 11.65,29.06 -22.88,1.89 -168.7,63.4 -168.7,98.77 0,15.68 2.77,16.02 5.8,29.06 -74.02,17.22 -110.5,141 -110.5,209.17l0 69.74c0,28.43 1.25,6.66 7.3,27.56 3.56,12.31 3.52,13.58 6.01,28.87 3.99,24.52 4.6,32.88 15.77,53.97 56.26,-37.63 25.35,-98.05 87.25,-139.46 10.03,42.93 -8.67,42.37 17.47,81.34 45.67,-30.55 60.05,-99.88 110.5,-133.63 12.25,23.13 10.96,27.93 40.72,34.86 24.9,-16.68 26.98,-40.23 47.82,-62.63 64.87,-69.7 134.07,-100.08 243.04,-100.08 10.59,0 0.62,-0.37 11.63,5.82 -26.25,35.77 -104.27,68.28 -141.93,102.25 -0.89,0.81 -2.06,2.06 -2.95,2.87l-107.7 89.98c-99.09,90.04 -183.82,186.42 -264.4,293.7l-54.01 79.7c-19.95,25 -33.11,57.01 -48.73,84.98 -57.95,103.79 -111.15,211.19 -146.01,324.8l-64.56 202.81c-6.18,28.62 -9.59,27 -14.87,54.85 -4.7,24.63 2.14,40.91 -15.74,54.01 -22.17,-95.07 -13.25,-77.89 -24.73,-167.06l-29.68 -167.91c-7.03,-28.37 -6.43,-51.08 -11.96,-81.01l-41.6 -202.48c-14.18,-66.12 -47.9,-164.54 -61.21,-229.41 -2.35,-11.48 -1.48,-10.03 -4.03,-19.22l-54.85 -171.82c-3.52,-12.06 -5.26,-23.07 -10.59,-35.9 -24.23,-58.55 -40.83,-125.38 -68.45,-181.49l-182.34 -404.71c-27.62,-63.98 -69.63,-124.75 -105.74,-184.92 -7.3,-12.25 -9.9,-16.91 -17.39,-29.12 -39.46,-64.35 -93.24,-154.54 -139.14,-209.63l-51.98 -70.09c-1.1,-1.31 -4.43,-4.83 -5.57,-6.07 -0.81,-0.89 -2.06,-2.06 -2.87,-2.95 -0.79,-0.89 -2.02,-2.08 -2.81,-3l-43.01 -55.8c-12.44,-16.06 -14.02,-12.1 -14.58,-37.73 52.08,4.35 114.19,24.06 162.79,40.75 75.23,25.83 134.59,67.95 190.58,123.4 48.13,47.63 75.08,100.25 99.13,162.46 15.66,40.58 43.22,35.75 55.6,-4.99 14.89,-49 -12.71,-113.25 96.59,62.15 9.63,15.47 16.95,28.66 23.46,46.3l34.96 104.51c31.3,-0.71 34.65,-8.17 40.64,-34.94 11.73,-52.37 10.69,-78.31 4.85,-127.6 58.55,29.49 83.45,142.91 91.68,205.68 3.74,28.47 -1.37,73.09 25.73,73.09 20.84,0 43.95,-81.37 51.17,-105.78 6.49,-21.98 8.74,-22.57 13.54,-44.59 27.85,-128.04 47.3,-264.98 -18.14,-384.24 -16.12,-29.39 -23.98,-44.55 -47.92,-68.35 -41.24,-40.95 -56.03,-29.35 -56.82,-65.27 27.21,14.37 25.15,14.37 52.35,0 -23.38,-44.14 -61.44,-73.05 -99.67,-103.81 -44.61,-35.94 -100.85,-68.93 -156.14,-88.1l-51.83 -17.93c-17.26,-3.85 -11.71,-0.33 -23.94,-10.96l116.35 5.8c-27.18,-51.33 -56.03,-47.63 -110.44,-69.78 -64.16,-26.12 -185.13,-44.68 -258.16,-19.49 -25.83,8.9 -20.09,5.74 -49.9,8.26 -41.91,3.58 -45.57,22.92 -93.41,22.92l32.55 -31.43c7.34,-5.55 9.23,-6.78 16.6,-12.46l9.86 -7.59c56.66,-40.75 113.48,-70.67 182.91,-90.39 112.15,-31.82 164.77,-15.02 275.79,-15.02 6.22,-26.6 2.27,-35.36 -13.81,-55.89 -15,-19.16 -27.95,-26.66 -38.54,-48.71 18.2,-1.52 20.67,-5.8 40.72,-5.8l221.05 0c65.87,0 65.72,43.47 89.69,-3.39 0.52,-1.02 1.31,-3.22 1.73,-4.1 0.4,-0.85 0.85,-2.87 1.66,-4.14 -41.2,-61.46 -104.06,-69.43 -151.25,-110.4l75.62 -5.8c80.97,0 146.13,17.74 214.1,47.69 28.18,12.4 28.6,20.82 59.3,4.6 -12.67,-54.29 -74,-108.78 -115.35,-146.26l-12.15 -11.11c-0.87,-0.83 -2.12,-2.02 -3,-2.81 -46.19,-42.87 -98.17,-84.88 -155.18,-112.29l-52.95 -22.65c-49.9,-14.27 -66.16,-24.46 -126.73,-24.46 -174.36,0 -172.8,42.47 -221.05,46.46l11.25 -17.78c10.52,-11.63 17.18,-18.66 35.28,-22.88 -0.94,-41.7 -13,-34.92 -73.23,-20.86 -18.34,4.31 -16.56,6.86 -28.91,11.79 -76.35,30.57 -147.8,61.67 -216.29,109.34l-68.1 54.01c-14.68,14.58 -0.5,12.06 -26.48,14.23z"/>
   <g>
    <path class="fil1" d="M10361.87 4762l0 102.37c-2.29,6.18 -4.8,63.75 -6.14,77.12 -4.66,46.69 -12.98,98.55 -23.02,143.99l-15.89 62.21c-2.52,3.81 0.6,0.5 -3.35,3.62 0.89,-51.02 3.24,-77.87 -10.13,-126.31 -9.96,-36.13 -26.12,-68.3 -44.09,-94.39 -123.25,-178.87 -385.86,-179.27 -514.59,9.19 -6.78,9.92 -7.13,17.76 -20.57,15.22 -6.45,-15.58 17.22,-115.91 -54.91,-220.3 -35.61,-51.52 -85.15,-96.11 -158.49,-120.32 -80.53,-26.58 -164.56,-17.18 -233.55,17.47 -45.61,22.9 -84.34,55.49 -113.9,94.86 -5.14,6.84 -8.9,12.5 -13.91,20.26 -6.14,9.46 -9.07,14.48 -20.88,6.43 -2.39,-8.53 0.29,-52.25 -1.08,-67.64 -10.79,-121.82 -90.16,-230.41 -211.23,-270.66 -130.55,-43.41 -265.66,7.97 -345.05,108.67 -19.53,24.81 -18.84,38 -34.34,33.42 -5.47,-18.37 17.89,-111.67 -53.16,-218.26 -82.88,-124.32 -244.68,-173.23 -384.66,-108.84 -35.05,16.12 -59.03,34.57 -82.95,55.68 -12.06,10.65 -22.28,22.13 -32.86,35.48 -5.68,7.13 -9.9,12.25 -14.77,19.41 -3.79,5.55 -8.96,17.93 -15.06,19.76 1.46,-21.73 61.96,-136.44 74.77,-159.38 31.47,-56.32 89.5,-141.27 132.61,-190.1 68.68,-77.73 107.88,-117.91 197.92,-187.42 84.01,-64.89 189.77,-125.48 303.06,-169.53 92.12,-35.86 180.87,-58.78 280.02,-73.05 17.33,-2.5 101.81,-8.51 108.8,-11.42l124.27 0c12.33,5.05 52.79,4.76 70.36,6.72 289.71,32.2 552.15,159.67 753.23,360.53 201.4,201.19 326.75,466.29 357.35,757.33 1.6,15.33 1.96,57.84 6.18,67.87z"/>
    <path class="fil1" d="M9661.55 6553.83l-58.17 0c-33.3,-16.37 -28.31,-9.71 -49.56,-38.27 -61.81,-83.13 -125.27,-174.86 -187.07,-255.87l-55.95 -76.29c-7.63,-10.05 -11.59,-17.53 -20.24,-26.52l-1517.18 -0.4c-7.47,15.83 -270.62,372.97 -279.97,381.45 -11.77,10.69 -18.47,9.15 -30.41,15.89l-58.2 0c-9.57,-6.63 -17.99,-9.07 -20.72,-23.59 -2.77,-14.83 3.81,-22.9 9.92,-31.43 26.44,-36.96 238.38,-326.65 244.35,-342.33 -73.92,-0.15 -147.88,-0.08 -221.8,0 -49.67,0.08 -87.61,-13.54 -112,-54.2 -7.01,-11.69 -9.13,-26.35 -15.58,-37.69l0 -43.62c4.8,-7.9 8.3,-22.42 14.18,-32.7 38.79,-67.49 111.9,-57.38 173.69,-57.38l1291.86 0c36.44,0 47.42,5.93 61.61,-8.86 75.38,-78.58 167.29,-165.58 242.29,-242.39 23.79,-24.36 23.67,-25.46 64.87,-25.4 73.61,0.1 723.64,4.6 735.28,-2.45 5.68,-3.41 38.15,-38.73 46.09,-46.65l231.31 -232.51c31.26,-31.28 57.55,-56.68 91.27,-91.95 14.77,-15.45 33.09,-31.95 46.63,-46.13 58.92,-61.81 162.04,-5.3 140.64,77.46 -7.15,27.72 -24.13,40.7 -38.37,54.93l-137.96 138.02c-123.46,123.59 -245.43,245.16 -368.64,368.83 -99.4,99.77 -175.69,178.29 -321.2,233.18 -21.38,8.05 -46.19,16.72 -69.8,22.86 -11.67,3.04 -67.22,14.33 -72.73,18.2 8.74,15.47 25.75,36.96 36.75,51.83l215.39 299.42c25.06,33.22 1.5,44.59 -10.59,54.56zm-758.12 -623.39c7.05,-11.83 184.05,-185.53 210.19,-212.13 12.02,-12.23 28.22,-7.55 60.96,-7.55l637.32 0.02c-2.1,7.59 -57.43,60.75 -67.14,70.47 -30.14,30.16 -113.65,121.94 -145.24,137.63 -36.4,18.07 -87.02,12.02 -130.37,12.02 -141.5,0 -282.97,0 -424.44,0 -44.63,0 -97.71,2.6 -141.29,-0.46z"/>
    <path class="fil1" d="M9146.44 4789.66c-1.21,11.56 -38.73,119.7 -45.4,139.19 -16.24,47.36 -31.12,93.64 -47.23,140.93l-188.5 562.65c-16.18,47.67 -31.18,94.05 -47.03,140.7 -27.5,81.07 -16.26,72.15 -68.12,72.13 -16.68,0 -33.34,-0.02 -50.02,0 3.41,-17.8 36.25,-111.27 44.68,-136.27l226.96 -677.48c9.86,-29.53 85.88,-262.19 91.49,-269.45 24.21,18.24 39.23,30.22 83.17,27.6z"/>
    <polygon class="fil1" points="8590.92,6452 8497.03,6451.91 8566.06,6242.59 8660.37,6242.05 "/>
   </g>
   <g>
    <path class="fil2" d="M411.03 12249.64l62.52 0c58.05,0 96.05,-13.79 113.92,-41.33 17.87,-27.58 26.81,-80.06 26.81,-157.47 0,-77.46 -8.94,-129.93 -26.81,-157.47 -17.87,-27.56 -55.87,-41.33 -113.92,-41.33l-62.52 0 0 397.59zm-339.52 -768.38l402.04 0c206.97,0 351.77,40.58 434.45,121.74 82.63,81.16 123.96,230.43 123.96,447.84 0,245.7 -72.96,404.29 -218.89,475.73l201.02 446.74c26.79,59.55 11.15,89.35 -46.9,89.35l-272.51 0c-28.29,0 -49.15,-4.1 -62.54,-12.29 -13.42,-8.19 -25.31,-24.94 -35.73,-50.25l-163.06 -402.06 -22.32 0 0 393.12c0,47.65 -23.84,71.49 -71.51,71.49l-268.02 0c-47.67,0 -71.49,-23.84 -71.49,-71.49l0 -1438.43c0,-47.65 23.81,-71.49 71.49,-71.49zm1840.52 958.23l-348.47 0 0 247.94 379.73 0c47.67,0 71.47,23.81 71.47,71.44l0 232.3c0,47.65 -23.79,71.49 -71.47,71.49l-714.76 0c-47.65,0 -71.49,-23.84 -71.49,-71.49l0 -1438.43c0,-47.65 23.84,-71.49 71.49,-71.49l705.81 0c47.67,0 71.49,23.84 71.49,71.49l0 232.3c0,47.63 -23.81,71.44 -71.49,71.44l-370.78 0 0 221.13 348.47 0c47.65,0 71.44,23.81 71.44,71.49l0 218.89c0,47.65 -23.79,71.49 -71.44,71.49zm1105.63 192.08c0,154.87 -46.55,269.18 -139.6,342.85 -93.05,73.73 -211.82,110.57 -356.27,110.57 -132.51,0 -236.75,-11.15 -312.69,-33.51 -29.8,-8.9 -50.25,-18.97 -61.44,-30.14 -11.17,-11.15 -16.74,-30.16 -16.74,-56.95l0 -216.66c0,-55.1 30.51,-72.96 91.58,-53.62 52.12,16.39 114.66,24.58 187.63,24.58 119.12,0 178.66,-33.51 178.66,-100.54 0,-31.26 -10.42,-59.15 -31.26,-83.74 -20.84,-24.58 -69.22,-63.64 -145.18,-117.29 -87.83,-62.54 -156.35,-132.11 -205.47,-208.82 -49.17,-76.71 -73.73,-177.6 -73.73,-302.67 0,-159.34 36.86,-273.61 110.57,-342.87 73.71,-69.22 199.92,-103.83 378.58,-103.83 108.72,0 192.87,7.43 252.42,22.32 26.79,5.97 45.8,15.27 56.95,27.93 11.17,12.65 16.74,32.38 16.74,59.19l0 223.34c0,49.15 -30.51,66.99 -91.54,53.64 -53.64,-13.42 -110.96,-20.13 -172.03,-20.13 -46.15,0 -78.18,6.72 -96.05,20.13 -17.85,13.35 -26.77,36.48 -26.77,69.22 0,62.54 56.57,136.98 169.72,223.34 104.27,78.93 177.96,153.41 221.16,223.38 43.18,69.99 64.77,160.07 64.77,270.26zm880.07 -192.08l-348.47 0 0 247.94 379.73 0c47.67,0 71.47,23.81 71.47,71.44l0 232.3c0,47.65 -23.79,71.49 -71.47,71.49l-714.76 0c-47.65,0 -71.49,-23.84 -71.49,-71.49l0 -1438.43c0,-47.65 23.84,-71.49 71.49,-71.49l705.81 0c47.65,0 71.49,23.84 71.49,71.49l0 232.3c0,47.63 -23.84,71.44 -71.49,71.44l-370.78 0 0 221.13 348.47 0c47.65,0 71.44,23.81 71.44,71.49l0 218.89c0,47.65 -23.79,71.49 -71.44,71.49zm652.21 -189.85l62.54 0c58.05,0 96.03,-13.79 113.9,-41.33 17.87,-27.58 26.81,-80.06 26.81,-157.47 0,-77.46 -8.94,-129.93 -26.81,-157.47 -17.87,-27.56 -55.85,-41.33 -113.9,-41.33l-62.54 0 0 397.59zm-339.52 -768.38l402.06 0c206.95,0 351.77,40.58 434.43,121.74 82.63,81.16 123.98,230.43 123.98,447.84 0,245.7 -72.96,404.29 -218.91,475.73l201.04 446.74c26.77,59.55 11.13,89.35 -46.9,89.35l-272.53 0c-28.29,0 -49.13,-4.1 -62.54,-12.29 -13.39,-8.19 -25.29,-24.94 -35.73,-50.25l-163.06 -402.06 -22.32 0 0 393.12c0,47.65 -23.84,71.49 -71.49,71.49l-268.04 0c-47.65,0 -71.49,-23.84 -71.49,-71.49l0 -1438.43c0,-47.65 23.84,-71.49 71.49,-71.49zm1807.03 1581.41l-437.82 0c-53.6,0 -85.63,-29.8 -96.05,-89.35l-243.43 -1413.89c-4.49,-23.81 -1.12,-42.8 10.03,-56.97 11.17,-14.12 28.68,-21.19 52.52,-21.19l297.05 0c46.15,0 71.47,23.07 75.96,69.26l96.03 819.71 22.32 276.98 8.96 0 22.32 -276.98 96.07 -819.71c4.45,-46.19 29.76,-69.26 75.92,-69.26l297.09 0c23.79,0 41.31,7.07 52.48,21.19 11.19,14.16 14.54,33.15 10.07,56.97l-243.47 1413.89c-10.42,59.55 -42.45,89.35 -96.03,89.35zm861.03 -620.95l174.21 0 -81.51 -562.86 -10.79 -0.4 -81.91 563.26zm-126.19 -960.45l424.36 0c58.45,0 92.7,26.06 103.12,78.54l239.02 1425.46c4.45,23.42 1.12,42.41 -10.07,56.57 -11.17,13.75 -28.68,20.84 -52.48,20.84l-273.63 0c-42.8,0 -68.12,-23.09 -75.58,-69.22l-29.01 -194.35 -226.71 0 -29.06 194.35c-7.43,46.13 -32.74,69.22 -75.54,69.22l-274.01 0c-23.46,0 -40.97,-7.09 -52.1,-21.21 -11.19,-14.16 -14.52,-33.13 -10.07,-56.97l238.98 -1425.41c10.42,-51.75 44.68,-77.81 102.77,-77.81zm835.35 303.79l0 -232.3c0,-47.65 23.81,-71.49 71.49,-71.49l723.7 0c47.63,0 71.47,23.84 71.47,71.49l0 232.3c0,47.63 -23.84,71.44 -71.47,71.44l-156.39 0 0 1134.69c0,47.65 -23.79,71.49 -71.44,71.49l-268.04 0c-47.65,0 -71.49,-23.84 -71.49,-71.49l0 -1134.69 -156.35 0c-47.67,0 -71.49,-23.81 -71.49,-71.44zm991.71 1206.13l0 -1438.43c0,-47.65 23.84,-71.49 71.47,-71.49l268.06 0c47.63,0 71.44,23.84 71.44,71.49l0 1438.43c0,47.65 -23.81,71.49 -71.44,71.49l-268.06 0c-47.63,0 -71.47,-23.84 -71.47,-71.49zm862.16 -1498.75c61.07,-22.36 138.5,-33.49 232.3,-33.49 93.8,0 171.26,11.13 232.3,33.49 61.07,22.32 115.04,62.9 161.96,121.74 46.9,58.82 80.76,141.83 101.6,249.05 20.84,107.22 31.26,243.45 31.26,408.74 0,165.31 -10.42,301.52 -31.26,408.74 -20.84,107.22 -54.7,190.25 -101.6,249.05 -46.92,58.84 -100.9,99.42 -161.96,121.74 -61.04,22.36 -138.5,33.51 -232.3,33.51 -93.8,0 -171.24,-11.15 -232.3,-33.51 -61.02,-22.32 -115.02,-62.9 -161.92,-121.74 -46.9,-58.8 -80.8,-141.83 -101.64,-249.05 -20.84,-107.22 -31.26,-243.43 -31.26,-408.74 0,-165.29 10.42,-301.52 31.26,-408.74 20.84,-107.22 54.74,-190.23 101.64,-249.05 46.9,-58.84 100.9,-99.42 161.92,-121.74zm163.08 1195c14.87,20.84 37.96,31.26 69.22,31.26 31.28,0 54.35,-10.42 69.26,-31.26 14.89,-20.86 25.31,-61.84 31.28,-122.86 5.95,-61.07 8.9,-158.59 8.9,-292.62 0,-134.03 -2.95,-231.53 -8.9,-292.6 -5.97,-61.02 -16.39,-102 -31.28,-122.86 -14.91,-20.84 -37.98,-31.26 -69.26,-31.26 -31.26,0 -54.35,10.42 -69.22,31.26 -14.89,20.86 -25.31,61.84 -31.28,122.86 -5.97,61.07 -8.94,158.57 -8.94,292.6 0,134.03 2.97,231.55 8.94,292.62 5.97,61.02 16.39,102 31.28,122.86zm1793.62 -1134.69l0 1438.43c0,47.65 -23.84,71.49 -71.51,71.49l-230.06 0c-47.63,0 -79.66,-20.09 -96.05,-60.32l-254.62 -632.12 0 620.95c0,47.65 -23.81,71.49 -71.49,71.49l-254.62 0c-47.65,0 -71.49,-23.84 -71.49,-71.49l0 -1438.43c0,-47.65 23.84,-71.49 71.49,-71.49l230.08 0c47.63,0 79.64,20.09 96.03,60.32l254.62 632.12 0 -620.95c0,-47.65 23.84,-71.49 71.49,-71.49l254.62 0c47.67,0 71.51,23.84 71.51,71.49z"/>
    <path class="fil3" d="M11970.02 11995l192.08 -446.74c17.87,-44.68 48.42,-66.99 91.58,-66.99l276.98 0c28.29,0 46.9,8.94 55.82,26.81 8.94,17.87 7.47,38.71 -4.47,62.54l-266.91 604.92 296.72 798.18c10.42,23.79 11.15,44.63 2.23,62.15 -8.94,17.87 -26.81,26.81 -53.22,26.81l-280.72 0c-46.15,0 -76.66,-22.32 -91.58,-66.99l-218.49 -614.28 0 609.78c0,47.65 -23.84,71.49 -71.49,71.49l-268.04 0c-47.65,0 -71.49,-23.84 -71.49,-71.49l0 -1438.43c0,-47.65 23.84,-71.49 71.49,-71.49l268.04 0c47.65,0 71.49,23.84 71.49,71.49l0 442.25zm1162.6 446.72l174.21 0 -81.51 -562.86 -10.77 -0.4 -81.93 563.26zm-126.19 -960.45l424.38 0c58.42,0 92.68,26.06 103.1,78.54l239.02 1425.46c4.47,23.42 1.12,42.41 -10.07,56.57 -11.17,13.75 -28.68,20.84 -52.48,20.84l-273.63 0c-42.8,0 -68.1,-23.09 -75.58,-69.22l-28.99 -194.35 -226.73 0 -29.06 194.35c-7.43,46.13 -32.74,69.22 -75.54,69.22l-273.98 0c-23.48,0 -40.97,-7.09 -52.12,-21.21 -11.19,-14.16 -14.52,-33.13 -10.07,-56.97l238.98 -1425.41c10.42,-51.75 44.68,-77.81 102.77,-77.81zm1291.03 768.38l62.52 0c58.05,0 96.05,-13.79 113.92,-41.33 17.87,-27.58 26.81,-80.06 26.81,-157.47 0,-77.46 -8.94,-129.93 -26.81,-157.47 -17.87,-27.56 -55.87,-41.33 -113.92,-41.33l-62.52 0 0 397.59zm-339.52 -768.38l402.04 0c206.97,0 351.77,40.58 434.45,121.74 82.63,81.16 123.96,230.43 123.96,447.84 0,245.7 -72.96,404.29 -218.89,475.73l201.02 446.74c26.79,59.55 11.15,89.35 -46.9,89.35l-272.51 0c-28.29,0 -49.15,-4.1 -62.54,-12.29 -13.42,-8.19 -25.31,-24.94 -35.73,-50.25l-163.06 -402.06 -22.32 0 0 393.12c0,47.65 -23.84,71.49 -71.51,71.49l-268.02 0c-47.67,0 -71.49,-23.84 -71.49,-71.49l0 -1438.43c0,-47.65 23.81,-71.49 71.49,-71.49zm1040.86 303.79l0 -232.3c0,-47.65 23.84,-71.49 71.49,-71.49l723.72 0c47.61,0 71.44,23.84 71.44,71.49l0 232.3c0,47.63 -23.84,71.44 -71.44,71.44l-156.39 0 0 1134.69c0,47.65 -23.79,71.49 -71.47,71.49l-268.02 0c-47.67,0 -71.51,-23.84 -71.51,-71.49l0 -1134.69 -156.35 0c-47.65,0 -71.49,-23.81 -71.49,-71.44zm964.93 1206.13l0 -236.75c0,-47.67 23.81,-71.47 71.49,-71.47l232.3 0c47.61,0 71.44,23.79 71.44,71.47l0 236.75c0,47.65 -23.84,71.49 -71.44,71.49l-232.3 0c-47.67,0 -71.49,-23.84 -71.49,-71.49zm1168.17 -276.94c49.13,0 94.55,-4.49 136.25,-13.42 53.6,-8.94 80.41,11.15 80.41,60.32l0 214.4c0,46.19 -23.09,74.48 -69.24,84.9 -71.49,16.39 -148.19,24.54 -230.06,24.54 -111.67,0 -201.79,-10.77 -270.28,-32.38 -68.49,-21.57 -127.31,-62.9 -176.46,-123.96 -49.13,-61.02 -83.74,-144.43 -103.87,-250.17 -20.09,-105.7 -30.16,-243.43 -30.16,-413.19 0,-166.77 9.71,-301.92 29.04,-405.43 19.38,-103.47 53.25,-185.36 101.67,-245.68 48.38,-60.3 106.8,-101.27 175.31,-122.84 68.51,-21.61 157.86,-32.38 268.04,-32.38 65.52,0 140,7.43 223.38,22.32 47.63,5.97 71.44,34.26 71.44,84.9l0 216.62c0,49.17 -26.77,69.26 -80.39,60.32 -41.7,-8.92 -85.63,-13.37 -131.78,-13.37 -99.77,0 -164.54,26.77 -194.35,80.41 -29.74,53.58 -44.68,171.99 -44.68,355.14 0,131.01 7.09,227.44 21.26,289.23 14.12,61.81 37.58,103.87 70.34,126.19 32.78,22.36 84.13,33.55 154.12,33.55zm636.57 -1221.81c61.07,-22.36 138.5,-33.49 232.3,-33.49 93.8,0 171.26,11.13 232.3,33.49 61.07,22.32 115.04,62.9 161.96,121.74 46.9,58.82 80.76,141.83 101.6,249.05 20.84,107.22 31.26,243.45 31.26,408.74 0,165.31 -10.42,301.52 -31.26,408.74 -20.84,107.22 -54.7,190.25 -101.6,249.05 -46.92,58.84 -100.9,99.42 -161.96,121.74 -61.04,22.36 -138.5,33.51 -232.3,33.51 -93.8,0 -171.24,-11.15 -232.3,-33.51 -61.02,-22.32 -115.02,-62.9 -161.92,-121.74 -46.9,-58.8 -80.8,-141.83 -101.64,-249.05 -20.84,-107.22 -31.26,-243.43 -31.26,-408.74 0,-165.29 10.42,-301.52 31.26,-408.74 20.84,-107.22 54.74,-190.23 101.64,-249.05 46.9,-58.84 100.9,-99.42 161.92,-121.74zm163.08 1195c14.87,20.84 37.94,31.26 69.22,31.26 31.26,0 54.35,-10.42 69.26,-31.26 14.87,-20.86 25.31,-61.84 31.26,-122.86 5.97,-61.07 8.92,-158.59 8.92,-292.62 0,-134.03 -2.95,-231.53 -8.92,-292.6 -5.95,-61.02 -16.39,-102 -31.26,-122.86 -14.91,-20.84 -38,-31.26 -69.26,-31.26 -31.28,0 -54.35,10.42 -69.22,31.26 -14.89,20.86 -25.31,61.84 -31.28,122.86 -5.97,61.07 -8.94,158.57 -8.94,292.6 0,134.03 2.97,231.55 8.94,292.62 5.97,61.02 16.39,102 31.28,122.86zm1447.4 -62.54c-16.39,40.18 -41.68,60.3 -75.94,60.3 -34.26,0 -59.59,-20.11 -75.96,-60.3l-149.65 -355.16 0 721.45c0,47.65 -23.84,71.49 -71.51,71.49l-259.07 0c-47.65,0 -71.49,-23.84 -71.49,-71.49l0 -1438.43c0,-47.65 23.84,-71.49 71.49,-71.49l238.98 0c47.67,0 79.7,19.36 96.05,58.07l221.16 513.73 221.11 -513.73c16.39,-38.71 48.38,-58.07 96.05,-58.07l239.02 0c47.61,0 71.44,23.84 71.44,71.49l0 1438.43c0,47.65 -23.84,71.49 -71.44,71.49l-259.11 0c-47.67,0 -71.51,-23.84 -71.51,-71.49l0 -721.45 -149.63 355.16z"/>
   </g>
   <path class="fil3" d="M2777.8 14549.94c0,17.43 13.77,31.24 31.24,31.24 17.47,0 31.24,-13.81 31.24,-31.24l0 -264.6 180.08 -319.72c2.77,-5.53 3.66,-10.09 3.66,-15.62 0,-17.45 -14.7,-31.24 -30.3,-31.24 -11.02,0 -22.07,5.49 -27.56,15.64l-157.12 284.8 -157.09 -284.8c-5.51,-10.15 -15.64,-15.64 -26.64,-15.64 -18.41,0 -31.24,15.64 -31.24,31.24 0,5.53 0.92,11.02 3.68,15.62l180.06 319.72 0 264.6zm589.84 -270.12c0,-105.66 -70.74,-177.33 -176.38,-177.33 -105.68,0 -176.42,71.67 -176.42,177.33l0 124c0,105.68 70.74,177.35 176.42,177.35 105.64,0 176.38,-71.67 176.38,-177.35l0 -124zm-62.48 128.62c0,71.65 -42.22,114.83 -113.9,114.83 -71.67,0 -113.94,-43.18 -113.94,-114.83l0 -133.22c0,-71.67 42.26,-114.83 113.94,-114.83 71.67,0 113.9,43.16 113.9,114.83l0 133.22zm441.02 99.23c-33.07,10.09 -68.91,15.6 -104.74,15.6 -66.12,0 -105.64,-39.5 -105.64,-105.64l0 -283.91c0,-16.54 -13.79,-31.24 -31.22,-31.24 -17.47,0 -31.28,14.7 -31.28,31.24l0 279.31c0,101.96 64.35,168.14 168.14,168.14 47.78,0 94.64,-8.28 138.75,-22.96 16.54,-5.55 28.45,-22.07 28.45,-40.45l0 -384.03c0,-16.54 -13.75,-31.24 -31.22,-31.24 -17.47,0 -31.24,14.7 -31.24,31.24l0 373.94zm191.1 42.26c0,17.43 13.81,31.24 31.24,31.24 17.47,0 31.24,-13.81 31.24,-31.24l0 -323.4c0,-40.43 25.73,-64.31 57.9,-64.31 15.6,0 29.39,1.83 44.09,4.6 5.51,0.89 11,2.75 15.6,2.75 17.47,0 31.24,-12.87 31.24,-29.41 0,-13.77 -10.11,-27.56 -24.81,-30.3 -22.03,-4.6 -44.09,-7.36 -66.12,-7.36 -66.18,0 -120.38,49.63 -120.38,126.81l0 320.64zm667.94 31.24c48.69,0 94.64,-8.28 138.73,-22.96 17.47,-5.55 29.41,-22.07 29.41,-40.45l0 -567.77c0,-17.45 -13.81,-31.24 -31.24,-31.24 -17.47,0 -31.24,13.79 -31.24,31.24l0 180.06c-32.16,-17.45 -67.99,-27.56 -105.66,-27.56 -101.98,0 -167.2,66.16 -167.2,168.14l0 142.41c0,100.13 67.06,168.14 167.2,168.14zm-104.74 -315.15c0,-66.14 39.5,-105.64 104.74,-105.64 39.5,0 77.16,10.11 105.66,36.73l0 310.55c-33.09,10.09 -68.89,15.6 -105.66,15.6 -65.25,0 -104.74,-39.5 -104.74,-105.64l0 -151.6zm401.48 283.91c0,17.43 13.81,31.24 31.24,31.24 17.45,0 31.22,-13.81 31.22,-31.24l0 -323.4c0,-40.43 25.75,-64.31 57.9,-64.31 15.6,0 29.41,1.83 44.11,4.6 5.49,0.89 11,2.75 15.6,2.75 17.47,0 31.22,-12.87 31.22,-29.41 0,-13.77 -10.09,-27.56 -24.79,-30.3 -22.03,-4.6 -44.09,-7.36 -66.14,-7.36 -66.16,0 -120.36,49.63 -120.36,126.81l0 320.64zm553.98 -188.33c23.9,0 43.2,-19.3 43.2,-43.2l0 -47.78c0,-100.13 -67.06,-168.14 -167.2,-168.14 -101.06,0 -168.14,68.01 -168.14,168.14l0 142.41c0,100.13 67.08,168.14 168.14,168.14 45.94,0 90.04,-9.21 131.37,-29.41 11.04,-5.53 17.47,-15.62 17.47,-27.56 0,-16.54 -13.79,-29.41 -31.22,-29.41 -4.62,0 -8.32,0.89 -12.87,2.77 -33.11,14.7 -68.01,25.71 -104.74,25.71 -66.16,0 -105.66,-44.11 -105.66,-110.23l0 -51.44 229.66 0zm-19.26 -57.9l-210.4 0 0 -37.67c0,-66.14 39.5,-105.64 105.66,-105.64 65.25,0 104.74,39.5 104.74,105.64l0 37.67zm480.48 -61.54c0,-93.74 -73.5,-139.66 -159.84,-139.66 -45.03,0 -92.8,10.11 -135.96,36.77 -10.13,6.43 -15.64,16.54 -15.64,27.56 0,18.37 14.7,29.41 31.24,29.41 5.49,0 10.09,-1.87 14.7,-4.6 34.9,-20.24 68.89,-31.24 105.66,-31.24 57.88,0 97.38,28.47 97.38,82.68l0 57.9 -104.74 0c-56.03,0 -99.21,10.98 -127.71,36.73 -26.62,24.79 -40.43,58.8 -40.43,101.96 0,43.2 13.81,78.1 40.43,101.98 28.49,25.73 71.67,39.54 127.71,39.54 47.78,0 93.7,-8.28 137.81,-22.96 17.45,-5.55 29.39,-22.07 29.39,-40.45l0 -275.61zm-62.46 265.52c-33.07,10.09 -68.91,15.6 -104.74,15.6 -93.7,0 -105.64,-46.84 -105.64,-83.61 0,-36.73 11.94,-80.82 105.64,-80.82l104.74 0 0 148.84zm690.88 42.26c0,17.43 13.81,31.24 31.24,31.24 17.47,0 31.24,-13.81 31.24,-31.24l0 -289.42c0,-87.25 -70.74,-158.03 -157.12,-158.03 -46.82,0 -92.76,15.64 -130.43,42.26 -25.73,-25.73 -64.31,-42.26 -109.34,-42.26 -50.54,0 -95.53,9.19 -142.41,26.66 -16.54,6.45 -27.56,22.05 -27.56,39.5l0 381.29c0,17.43 13.79,31.24 31.24,31.24 17.45,0 31.22,-13.81 31.22,-31.24l0 -372.11c34.94,-11.94 68.91,-17.43 107.51,-17.43 41.33,0 82.7,22.96 82.7,65.23l0 324.32c0,17.43 13.77,31.24 31.24,31.24 16.54,0 30.3,-13.81 30.3,-31.24l0 -358.3c27.56,-20.24 61.56,-31.24 95.53,-31.24 52.37,0 94.64,43.16 94.64,95.53l0 294.01zm416.19 -94.64c0,74.4 54.2,125.88 120.36,125.88 17.45,0 34.9,-1.87 52.37,-4.6 15.6,-2.77 25.71,-15.64 25.71,-30.35 0,-18.37 -16.54,-29.39 -29.41,-29.39 -9.15,0 -34.9,3.7 -48.67,3.7 -32.16,0 -57.9,-23.92 -57.9,-63.42l0 -285.74 105.68 0c16.54,0 30.3,-11.94 30.3,-29.41 0,-17.43 -13.77,-30.3 -30.3,-30.3l-105.68 0 0 -161.69c0,-17.45 -13.75,-31.24 -31.22,-31.24 -17.43,0 -31.24,13.79 -31.24,31.24l0 505.31zm290.31 94.64c0,17.43 13.81,31.24 31.24,31.24 17.47,0 31.22,-13.81 31.22,-31.24l0 -323.4c0,-40.43 25.75,-64.31 57.9,-64.31 15.6,0 29.41,1.83 44.11,4.6 5.49,0.89 11,2.75 15.6,2.75 17.47,0 31.22,-12.87 31.22,-29.41 0,-13.77 -10.09,-27.56 -24.79,-30.3 -22.03,-4.6 -44.09,-7.36 -66.14,-7.36 -66.16,0 -120.36,49.63 -120.36,126.81l0 320.64zm578.81 -307.78c0,-93.74 -73.5,-139.66 -159.84,-139.66 -45.03,0 -92.8,10.11 -135.96,36.77 -10.13,6.43 -15.64,16.54 -15.64,27.56 0,18.37 14.7,29.41 31.24,29.41 5.49,0 10.11,-1.87 14.7,-4.6 34.9,-20.24 68.91,-31.24 105.66,-31.24 57.88,0 97.38,28.47 97.38,82.68l0 57.9 -104.74 0c-56.03,0 -99.19,10.98 -127.71,36.73 -26.62,24.79 -40.43,58.8 -40.43,101.96 0,43.2 13.81,78.1 40.43,101.98 28.52,25.73 71.67,39.54 127.71,39.54 47.78,0 93.7,-8.28 137.81,-22.96 17.47,-5.55 29.39,-22.07 29.39,-40.45l0 -275.61zm-62.46 265.52c-33.07,10.09 -68.91,15.6 -104.74,15.6 -93.7,0 -105.64,-46.84 -105.64,-83.61 0,-36.73 11.94,-80.82 105.64,-80.82l104.74 0 0 148.84zm277.48 47.78c4.6,14.68 18.37,25.73 34.9,25.73 16.54,0 31.24,-11.04 35.84,-26.66l130.47 -410.65c0.89,-3.7 1.83,-6.43 1.83,-10.13 0,-19.28 -14.7,-31.24 -32.18,-31.24 -12.85,0 -24.79,9.19 -28.45,22.07l-107.51 349.11 -115.77 -350.05c-4.58,-12.87 -16.54,-21.13 -29.41,-21.13 -18.37,0 -31.24,14.7 -31.24,31.24 0,3.7 0.94,6.43 1.87,10.13l139.64 411.59zm554.87 -193.85c23.9,0 43.2,-19.3 43.2,-43.2l0 -47.78c0,-100.13 -67.06,-168.14 -167.2,-168.14 -101.06,0 -168.14,68.01 -168.14,168.14l0 142.41c0,100.13 67.08,168.14 168.14,168.14 45.94,0 90.04,-9.21 131.39,-29.41 11.02,-5.53 17.45,-15.62 17.45,-27.56 0,-16.54 -13.79,-29.41 -31.22,-29.41 -4.62,0 -8.32,0.89 -12.87,2.77 -33.11,14.7 -68.01,25.71 -104.74,25.71 -66.16,0 -105.66,-44.11 -105.66,-110.23l0 -51.44 229.66 0zm-19.26 -57.9l-210.4 0 0 -37.67c0,-66.14 39.5,-105.64 105.66,-105.64 65.25,0 104.74,39.5 104.74,105.64l0 37.67zm177.31 246.24c0,17.43 13.77,31.24 31.22,31.24 17.47,0 31.24,-13.81 31.24,-31.24l0 -599.95c0,-17.45 -13.77,-31.24 -31.24,-31.24 -17.45,0 -31.22,13.79 -31.22,31.24l0 599.95zm477.71 -547.59c22.96,0 41.33,-19.3 41.33,-42.26 0,-22.96 -18.37,-41.33 -41.33,-41.33 -22.96,0 -41.33,18.37 -41.33,41.33 0,22.96 18.37,42.26 41.33,42.26zm-31.24 605.46c0,57.88 -29.39,98.32 -79.93,110.23 -14.7,2.79 -23.88,14.7 -23.88,28.52 0,19.26 15.6,30.3 29.41,30.3 2.72,0 3.66,0 9.17,-0.92 77.16,-14.68 127.71,-84.53 127.71,-170.9l0 -471.3c0,-16.54 -13.77,-31.24 -31.24,-31.24 -17.43,0 -31.24,14.7 -31.24,31.24l0 474.07zm464.9 -100.13c-33.07,10.09 -68.91,15.6 -104.74,15.6 -66.14,0 -105.64,-39.5 -105.64,-105.64l0 -283.91c0,-16.54 -13.81,-31.24 -31.24,-31.24 -17.47,0 -31.26,14.7 -31.26,31.24l0 279.31c0,101.96 64.33,168.14 168.14,168.14 47.78,0 94.64,-8.28 138.73,-22.96 16.54,-5.55 28.47,-22.07 28.47,-40.45l0 -384.03c0,-16.54 -13.77,-31.24 -31.24,-31.24 -17.47,0 -31.22,14.7 -31.22,31.24l0 373.94zm334.45 -127.71c38.56,16.54 57.86,36.73 57.86,75.33 0,42.26 -38.56,67.97 -81.78,67.97 -36.73,0 -68.89,-10.11 -98.3,-22.96 -4.6,-1.85 -8.26,-3.68 -12.87,-3.68 -18.37,0 -31.22,12.87 -31.22,29.41 0,12.87 6.43,22.96 18.37,28.47 34.92,16.54 73.5,26.66 121.3,26.66 84.51,0 146.97,-59.73 146.97,-135.98 0,-56.05 -36.73,-100.17 -91.87,-122.19l-86.36 -34.9c-20.22,-8.28 -45.94,-26.66 -45.94,-63.4 0,-46.88 43.2,-64.31 79.04,-64.31 34.9,0 67.97,7.32 95.53,20.2 4.62,1.83 8.28,2.77 11.94,2.77 17.47,0 31.24,-11.96 31.24,-28.49 0,-12.87 -7.34,-23.88 -19.26,-29.41 -31.28,-13.77 -67.08,-22.96 -112.11,-22.96 -81.78,0 -148.84,48.71 -148.84,124.98 0,65.18 36.75,98.3 79.93,116.66l86.38 35.84zm226.9 75.33c0,74.4 54.2,125.88 120.36,125.88 17.45,0 34.9,-1.87 52.37,-4.6 15.6,-2.77 25.71,-15.64 25.71,-30.35 0,-18.37 -16.54,-29.39 -29.41,-29.39 -9.15,0 -34.9,3.7 -48.67,3.7 -32.16,0 -57.88,-23.92 -57.88,-63.42l0 -285.74 105.66 0c16.54,0 30.3,-11.94 30.3,-29.41 0,-17.43 -13.77,-30.3 -30.3,-30.3l-105.66 0 0 -161.69c0,-17.45 -13.77,-31.24 -31.24,-31.24 -17.43,0 -31.24,13.79 -31.24,31.24l0 505.31zm827.76 -213.15c0,-93.74 -73.5,-139.66 -159.84,-139.66 -45.03,0 -92.8,10.11 -135.96,36.77 -10.13,6.43 -15.64,16.54 -15.64,27.56 0,18.37 14.7,29.41 31.24,29.41 5.49,0 10.11,-1.87 14.7,-4.6 34.9,-20.24 68.91,-31.24 105.66,-31.24 57.88,0 97.38,28.47 97.38,82.68l0 57.9 -104.74 0c-56.03,0 -99.19,10.98 -127.71,36.73 -26.62,24.79 -40.43,58.8 -40.43,101.96 0,43.2 13.81,78.1 40.43,101.98 28.52,25.73 71.67,39.54 127.71,39.54 47.78,0 93.7,-8.28 137.81,-22.96 17.47,-5.55 29.39,-22.07 29.39,-40.45l0 -275.61zm-62.46 265.52c-33.07,10.09 -68.91,15.6 -104.74,15.6 -93.7,0 -105.64,-46.84 -105.64,-83.61 0,-36.73 11.94,-80.82 105.64,-80.82l104.74 0 0 148.84zm416.19 237.94c0,17.47 13.79,31.24 31.22,31.24 17.47,0 31.24,-13.77 31.24,-31.24l0 -192.02c32.18,17.45 68.01,27.58 105.68,27.58 100.13,0 167.2,-68.01 167.2,-168.14l0 -142.41c0,-100.13 -67.08,-168.14 -167.2,-168.14 -47.78,0 -94.64,7.36 -138.75,22.96 -17.43,6.45 -29.39,22.07 -29.39,40.43l0 579.73zm272.86 -327.98c0,66.14 -39.5,105.64 -104.72,105.64 -39.52,0 -77.18,-10.11 -105.68,-36.73l0 -310.55c34.01,-10.11 68.91,-15.6 105.68,-15.6 65.23,0 104.72,39.5 104.72,105.64l0 151.6zm450.19 132.3c0,17.43 13.77,31.24 31.24,31.24 17.45,0 31.22,-13.81 31.22,-31.24l0 -279.31c0,-100.13 -67.06,-168.14 -167.2,-168.14 -37.67,0 -73.5,10.11 -105.68,27.56l0 -180.06c0,-17.45 -13.75,-31.24 -31.22,-31.24 -17.43,0 -31.24,13.79 -31.24,31.24l0 599.95c0,17.43 13.81,31.24 31.24,31.24 17.47,0 31.22,-13.81 31.22,-31.24l0 -348.22c28.52,-26.62 66.18,-41.33 105.68,-41.33 65.25,0 104.74,39.5 104.74,105.64l0 283.91zm520.91 -270.12c0,-105.66 -70.74,-177.33 -176.38,-177.33 -105.66,0 -176.4,71.67 -176.4,177.33l0 124c0,105.68 70.74,177.35 176.4,177.35 105.64,0 176.38,-71.67 176.38,-177.35l0 -124zm-62.46 128.62c0,71.65 -42.24,114.83 -113.92,114.83 -71.65,0 -113.94,-43.18 -113.94,-114.83l0 -133.22c0,-71.67 42.28,-114.83 113.94,-114.83 71.67,0 113.92,43.16 113.92,114.83l0 133.22zm445.62 141.5c0,17.43 13.77,31.24 31.22,31.24 17.47,0 31.24,-13.81 31.24,-31.24l0 -279.31c0,-100.13 -67.06,-168.14 -167.2,-168.14 -48.69,0 -95.53,7.36 -138.73,22.96 -17.45,6.45 -29.41,22.07 -29.41,40.43l0 384.05c0,17.43 13.81,31.24 31.24,31.24 17.47,0 31.22,-13.81 31.22,-31.24l0 -373.94c33.11,-10.11 68.91,-15.6 105.68,-15.6 65.25,0 104.74,39.5 104.74,105.64l0 283.91zm460.28 -188.33c23.9,0 43.2,-19.3 43.2,-43.2l0 -47.78c0,-100.13 -67.08,-168.14 -167.2,-168.14 -101.08,0 -168.14,68.01 -168.14,168.14l0 142.41c0,100.13 67.06,168.14 168.14,168.14 45.92,0 90.04,-9.21 131.37,-29.41 11.04,-5.53 17.47,-15.62 17.47,-27.56 0,-16.54 -13.81,-29.41 -31.24,-29.41 -4.6,0 -8.3,0.89 -12.85,2.77 -33.11,14.7 -68.01,25.71 -104.74,25.71 -66.18,0 -105.68,-44.11 -105.68,-110.23l0 -51.44 229.68 0zm-19.26 -57.9l-210.42 0 0 -37.67c0,-66.14 39.5,-105.64 105.68,-105.64 65.23,0 104.74,39.5 104.74,105.64l0 37.67zm384.01 109.34c0,100.13 67.06,168.14 168.14,168.14 42.26,0 82.65,-9.21 120.32,-27.58 11.04,-5.53 17.47,-15.62 17.47,-27.56 0,-16.54 -14.7,-29.41 -31.22,-29.41 -4.62,0 -10.11,1.83 -13.81,3.68 -27.54,13.79 -60.63,22.96 -92.76,22.96 -66.18,0 -105.68,-39.5 -105.68,-105.64l0 -151.6c0,-66.14 39.5,-105.64 105.68,-105.64 32.13,0 63.35,9.17 92.76,23.86 4.6,1.85 9.19,2.77 13.81,2.77 17.43,0 31.22,-12.85 31.22,-29.39 0,-11.04 -6.43,-22.03 -17.47,-27.58 -37.67,-18.37 -78.06,-27.56 -120.32,-27.56 -101.08,0 -168.14,68.01 -168.14,168.14l0 142.41zm705.58 -170.88c0,-93.74 -73.5,-139.66 -159.84,-139.66 -45.03,0 -92.8,10.11 -135.96,36.77 -10.15,6.43 -15.64,16.54 -15.64,27.56 0,18.37 14.7,29.41 31.24,29.41 5.49,0 10.09,-1.87 14.7,-4.6 34.9,-20.24 68.89,-31.24 105.66,-31.24 57.86,0 97.38,28.47 97.38,82.68l0 57.9 -104.74 0c-56.03,0 -99.21,10.98 -127.71,36.73 -26.64,24.79 -40.43,58.8 -40.43,101.96 0,43.2 13.79,78.1 40.43,101.98 28.49,25.73 71.67,39.54 127.71,39.54 47.78,0 93.7,-8.28 137.79,-22.96 17.47,-5.55 29.41,-22.07 29.41,-40.45l0 -275.61zm-62.46 265.52c-33.07,10.09 -68.91,15.6 -104.74,15.6 -93.7,0 -105.64,-46.84 -105.64,-83.61 0,-36.73 11.94,-80.82 105.64,-80.82l104.74 0 0 148.84zm191.1 42.26c0,17.43 13.77,31.24 31.24,31.24 17.47,0 31.22,-13.81 31.22,-31.24l0 -599.95c0,-17.45 -13.75,-31.24 -31.22,-31.24 -17.47,0 -31.24,13.79 -31.24,31.24l0 599.95zm200.27 0c0,17.43 13.77,31.24 31.24,31.24 17.47,0 31.22,-13.81 31.22,-31.24l0 -599.95c0,-17.45 -13.75,-31.24 -31.22,-31.24 -17.47,0 -31.24,13.79 -31.24,31.24l0 599.95zm733.12 -307.78c0,-93.74 -73.5,-139.66 -159.84,-139.66 -45.03,0 -92.8,10.11 -135.96,36.77 -10.15,6.43 -15.64,16.54 -15.64,27.56 0,18.37 14.7,29.41 31.24,29.41 5.49,0 10.09,-1.87 14.7,-4.6 34.9,-20.24 68.89,-31.24 105.66,-31.24 57.86,0 97.38,28.47 97.38,82.68l0 57.9 -104.74 0c-56.03,0 -99.21,10.98 -127.71,36.73 -26.64,24.79 -40.43,58.8 -40.43,101.96 0,43.2 13.79,78.1 40.43,101.98 28.49,25.73 71.67,39.54 127.71,39.54 47.78,0 93.7,-8.28 137.79,-22.96 17.47,-5.55 29.41,-22.07 29.41,-40.45l0 -275.61zm-62.46 265.52c-33.07,10.09 -68.91,15.6 -104.74,15.6 -93.7,0 -105.64,-46.84 -105.64,-83.61 0,-36.73 11.94,-80.82 105.64,-80.82l104.74 0 0 148.84zm524.61 45.92c4.6,16.54 19.26,27.58 35.84,27.58 16.54,0 30.3,-11.04 34.9,-26.66l122.19 -411.59c0.92,-2.77 1.85,-6.43 1.85,-9.19 0,-17.43 -15.64,-30.3 -31.24,-30.3 -13.81,0 -26.66,8.26 -30.35,22.03l-97.36 341.79 -91.91 -337.19c-4.55,-15.6 -19.26,-27.56 -35.79,-27.56 -16.54,0 -31.24,11.96 -35.84,27.56l-92.8 337.19 -97.36 -341.79c-3.7,-13.77 -16.54,-22.03 -30.35,-22.03 -19.3,0 -31.24,15.6 -31.24,30.3 0,2.77 0.94,6.43 1.85,9.19l122.19 411.59c4.6,15.62 19.3,26.66 35.84,26.66 16.54,0 31.24,-11.04 35.84,-27.58l91.87 -335.34 91.87 335.34zm589.82 -311.44c0,-93.74 -73.5,-139.66 -159.84,-139.66 -45.03,0 -92.8,10.11 -135.96,36.77 -10.13,6.43 -15.64,16.54 -15.64,27.56 0,18.37 14.7,29.41 31.24,29.41 5.49,0 10.09,-1.87 14.7,-4.6 34.9,-20.24 68.89,-31.24 105.66,-31.24 57.88,0 97.38,28.47 97.38,82.68l0 57.9 -104.74 0c-56.03,0 -99.21,10.98 -127.71,36.73 -26.62,24.79 -40.43,58.8 -40.43,101.96 0,43.2 13.81,78.1 40.43,101.98 28.49,25.73 71.67,39.54 127.71,39.54 47.78,0 93.7,-8.28 137.81,-22.96 17.45,-5.55 29.39,-22.07 29.39,-40.45l0 -275.61zm-62.46 265.52c-33.07,10.09 -68.91,15.6 -104.74,15.6 -93.7,0 -105.64,-46.84 -105.64,-83.61 0,-36.73 11.94,-80.82 105.64,-80.82l104.74 0 0 148.84zm274.71 135.96c-14.7,46.84 -50.54,70.74 -103.81,73.5 -16.54,0.89 -30.35,13.77 -30.35,29.41 0,18.37 13.81,30.3 30.35,30.3 79.93,0 139.64,-45.94 161.67,-114.85l163.54 -518.14c0.94,-3.7 1.83,-6.43 1.83,-10.13 0,-18.37 -15.6,-31.24 -32.13,-31.24 -12.87,0 -25.73,9.19 -29.41,22.07l-108.4 358.3 -125.85 -359.24c-4.62,-12.87 -16.54,-20.2 -29.41,-20.2 -19.3,0 -31.24,15.6 -31.24,31.24 0,3.66 0.89,6.43 1.83,10.09l153.45 427.21 -22.07 71.67zm439.15 -103.83c0,-22.96 -18.37,-42.24 -41.35,-42.24 -22.96,0 -41.33,19.28 -41.33,42.24 0,22.07 18.37,41.37 41.33,41.37 22.98,0 41.35,-19.3 41.35,-41.37zm-72.57 -170.88c0,16.54 13.79,31.24 31.22,31.24 17.47,0 31.24,-14.7 31.24,-31.24l0 -418.93c0,-17.45 -13.77,-31.24 -31.24,-31.24 -17.43,0 -31.22,14.7 -31.22,31.24l0 418.93z"/>
   <path class="fil4" d="M8132.16 8380.46c391,0 707.93,316.93 707.93,707.91 0,390.96 -316.93,707.89 -707.93,707.89 -390.98,0 -707.91,-316.93 -707.91,-707.89 0,-390.98 316.93,-707.91 707.91,-707.91z"/>
   <path class="fil4" d="M11622.28 8380.46c390.98,0 707.91,316.93 707.91,707.91 0,390.96 -316.93,707.89 -707.91,707.89 -391,0 -707.93,-316.93 -707.93,-707.89 0,-390.98 316.93,-707.91 707.93,-707.91z"/>
  </g>
 </g>
</svg>
